<?xml version="1.0" encoding="utf-8"?>
<!-- Generator: Adobe Illustrator 24.3.0, SVG Export Plug-In . SVG Version: 6.00 Build 0)  -->
<svg version="1.1" id="Layer_1" xmlns="http://www.w3.org/2000/svg" xmlns:xlink="http://www.w3.org/1999/xlink" x="0px" y="0px"
	 viewBox="0 0 315 99" style="enable-background:new 0 0 315 99;" xml:space="preserve">
<style type="text/css">
	.st0{fill:#DC4F16;}
</style>
<path class="st0" d="M297.2,17.4c-7.9-7.9-19.1-12.7-32-12.7c-12.9,0-24.2,4.9-32.1,12.8c-5,4.9-8.7,11-10.8,17.8
	c-2.1-6.6-5.7-12.4-10.6-17.1c-7.9-7.6-19.1-12.1-32.2-12.1H146v50.1c-2.2-4.5-6-7.7-10.8-10c4.7-3.5,8.5-8.9,8.4-17v-0.2
	c0-6.9-2.8-12.7-7.9-16.7c-5-4-12.1-6.1-20.7-6.1H75.8v50.1c-2.2-4.5-6-7.7-10.8-10c4.7-3.5,8.5-8.9,8.4-17v-0.2
	c0-6.8-2.8-12.7-7.9-16.7c-5-4-12.1-6.1-20.7-6.1H5.6v84.4h40.3c9.3,0,17.3-1.9,23-5.9c3-2.1,5.4-4.9,7-8.2v14h40.3
	c9.3,0,17.3-1.9,23-5.9c3-2.1,5.4-4.9,7-8.2v14h33.4c13.1,0,24.3-4.6,32.2-12.2c4.9-4.7,8.5-10.5,10.5-17
	c2.1,6.8,5.8,12.9,10.7,17.9c7.9,7.9,19.1,12.7,32,12.7h0c12.9,0,24.2-4.9,32.1-12.8c8-7.9,12.7-18.8,12.7-30.8v-0.2
	C309.8,36.2,305.1,25.3,297.2,17.4z M26.7,25.5h15.6c3.5,0,6,0.7,7.5,1.8c1.5,1.1,2.2,2.4,2.2,4.6v0.2c0,2.5-0.8,3.8-2.5,4.9
	c-1.7,1.1-4.6,1.7-8.3,1.7H26.7V25.5z M56.5,64.4c0,2.5-0.8,3.9-2.5,5c-1.7,1.1-4.4,1.8-8.1,1.8H26.7V57.3h18.6c4.3,0,7.2,0.8,8.9,2
	c1.6,1.2,2.3,2.6,2.3,4.8V64.4z M96.9,25.5h15.6c3.5,0,6,0.7,7.5,1.8c1.5,1.1,2.2,2.4,2.2,4.6v0.2c-0.1,2.5-0.9,3.8-2.6,4.9
	c-1.7,1.1-4.6,1.7-8.3,1.7H96.9V25.5z M126.7,64.4c0,2.5-0.8,3.9-2.5,5c-1.7,1.1-4.4,1.8-8.1,1.8H96.9V57.3h18.6
	c4.3,0,7.2,0.8,8.9,2c1.6,1.2,2.3,2.6,2.3,4.8V64.4z M201.8,48.6c-0.1,13.4-8.8,22-22.4,22.1h-11.8V26h11.8
	c13.6,0.1,22.3,9,22.4,22.4V48.6z M287.4,48.6c-0.1,12.9-9.1,23.2-22.3,23.2c-13.2,0-22.4-10.5-22.5-23.4v-0.2
	c0.1-12.9,9.1-23.2,22.3-23.2c13.2,0,22.4,10.5,22.5,23.4L287.4,48.6L287.4,48.6z"/>
</svg>
