<?xml version="1.0" encoding="utf-8"?>
<!-- Generator: Adobe Illustrator 23.0.2, SVG Export Plug-In . SVG Version: 6.00 Build 0)  -->
<svg version="1.1" id="Layer_1" xmlns="http://www.w3.org/2000/svg" xmlns:xlink="http://www.w3.org/1999/xlink" x="0px" y="0px"
	 viewBox="0 0 146.2 52.3" style="enable-background:new 0 0 146.2 52.3;" xml:space="preserve">
<style type="text/css">
	.st0{fill:#B2D235;}
	.st1{fill:#004C69;}
</style>
<path class="st0" d="M141.6,30.1c-0.6-0.2-1.4-0.2-2,0.1c-0.7,0.3-1.3,0.7-1.6,1.3c-0.4,0.7-0.5,1.5-0.2,2.2
	c0.3,0.7,0.8,1.3,1.6,1.5c0.6,0.2,1.4,0.2,2.1-0.1c0.7-0.3,1.3-0.7,1.6-1.3c0.4-0.7,0.5-1.5,0.2-2.2C143,31,142.4,30.4,141.6,30.1"
	/>
<path class="st1" d="M127.5,36.1c-1.1,0-2.1-0.8-2.3-2c-0.1-1.2,0.7-2.4,2-2.5c1.1-0.1,1.4-0.6,1.6-0.8c0.6-0.8,0.7-1.8,0.4-3.1
	c-0.3-1.4-1.1-2.6-1.7-3.4c-0.2,0.3-0.4,0.5-0.6,0.8c-2.9,4-7.2,9.3-12.1,9c-2.3-0.1-3.7-1.9-4.3-3.6c-1.1,2.3-2.9,4.3-5.4,4.6
	c-1.9,0.2-3.5-0.3-4.8-1.5c-0.8-0.8-1.4-1.8-1.7-2.8c-1.9,2.2-4.3,4.3-6.9,4.5c-2.4,0.2-3.9-0.9-4.7-1.8c-1.5-1.7-2.1-5-1.6-7.8
	c0.2-1.2,1.2-1.5,2.5-1.3c1.2,0.2,2.2,1.1,2,2.3c-0.2,1.4,0,3.2,0.5,3.8c0.2,0.2,0.4,0.4,1.1,0.3c1.9-0.1,5.2-4.2,6.8-7.1
	c0.5-0.9,1.6-1.3,2.6-1c1,0.3,1.9,0.8,1.8,1.9c-0.1,1.6-0.3,6.5,1.9,6.2c2.2-0.3,3.7-4,4-5.9c0.2-1.1,1.1-1.4,2.3-1.3
	c1.1,0.1,2.2,0.6,2.2,1.7c0.1,2.1,0.8,4.2,1.8,4.4c2.7,0.5,6-4,8.3-7.2c0.6-0.8,1.2-1.6,1.7-2.3c0.9-1.1,2.7-1.6,4.6-0.1
	c1.5,1.1,2.9,3.3,3.7,5.5c1,3,0.7,5.8-0.9,7.9c-1.1,1.5-2.7,2.4-4.7,2.6C127.6,36.1,127.5,36.1,127.5,36.1 M91.2,17.8
	c0.3-1.4-0.5-2.7-1.7-3s-2.4,0.6-2.7,2c-0.3,1.4,0.5,2.7,1.7,3S90.9,19.2,91.2,17.8 M31.3,22.6c0.2-0.2,0.3-0.4,0.5-0.6
	c4.3-4.9,4.5-9.7,4.1-10.9c-0.8,0.6-3.1,3.6-4.2,8.7C31.5,20.7,31.4,21.7,31.3,22.6 M80.8,19.5c1.2,0.2,2.1,1.2,1.9,2.4
	c-0.6,2.9-2.5,9.2-4.2,12c-1.4,2.4-3.1,2.9-4.3,2.9c-0.1,0-0.1,0-0.2,0c-2.9-0.1-4.7-3-5.9-5.2c-0.5-0.9-0.9-1.7-1.3-2.5
	c-0.8,1.7-1.9,3.2-3.7,3.9c-2.3,1-4,0.5-5.1-0.1c-0.8-0.4-1.4-1-1.9-1.6c-1.4,2.2-3.5,4.3-6.5,4.3c-2.6-0.1-4.1-1.3-4.9-2.3
	c-0.2-0.3-0.4-0.6-0.6-0.9c-0.2,0.2-0.4,0.4-0.6,0.5c-1.7,1.7-3.9,2.5-6.2,2.5c-1.4,0-2.9-0.3-4.3-1c-1.2-0.5-3.2-1.7-4.6-4
	c-3.9,2-8.1,2.7-11.9,2.8c1.4,4,2.8,7.3,6,12.2c0.9,1.3,0.8,3.2-1,4.1c-1.1,0.6-2.1-0.6-2.5-1.2c-3.8-5.9-5.9-10.5-7.4-15.3
	c-4.2-0.5-6.7-1.3-7-1.4c-1.4-0.5-2.1-1.7-1.8-3.3c0.3-1.2,0.9-1.6,3.2-1c0.1,0,1.6,0.6,4.5,1c-1.4-7.8-0.1-13.8,1.9-18.1
	c2.4-5.2,7.1-8.2,10.6-6.8c1.5,0.6,4.8,2.9,2.1,10.9c-1.2,3.6-2.7,5.2-2.8,5.3c-0.8,0.9-2.7,1.7-3.7,1c-1-0.7-0.8-1.7-0.1-2.7
	c0,0,1.3-2,2.3-5c1.3-3.9,0.6-5.2,0.5-5.3c-0.5-0.2-3.1,0.8-4.9,4.5c-1.8,3.8-2.9,9.3-1.3,16.6c3.7,0.1,7.9-0.5,11.7-2.5
	c-0.3-1.9-0.2-4.3,0.4-7.1c1.3-5.9,4.1-10.1,6.2-11.5c2-1.3,4.5-0.9,6,1c2,2.6,1.4,10.2-4.3,16.7c-1,1.1-2,2-3,2.9
	c0.6,1,1.4,1.8,2.6,2.3c0.6,0.3,1.5,0.5,2.4,0.6c0.6,0,1.2-0.2,1.7-0.4c2.1-0.9,4-3.4,5-6.2c0.4-1.1,1.4-1.4,2.5-1
	c1.1,0.4,2,1.4,1.7,2.6c-0.3,1.2-0.6,3.8,0.1,4.8c0.1,0.1,0.4,0.5,1.4,0.5c0,0,0,0,0,0c1.7,0,3.6-3.8,4.1-5.8c0.3-1,1.2-1.4,2.3-1.2
	c1.2,0.2,1.8,0.6,2,1.7c0.2,1.1,0.9,2.9,1.9,3.2c0.2,0.1,0.5,0.2,1.2-0.1c1.8-0.8,3.1-3.5,3-5.9c0-1.1,0.6-2.3,1.7-2.4
	c1.1-0.2,2.2-0.1,2.5,1.1c0,0,0.7,2.8,3.4,8c1,1.9,1.7,2.5,2,2.7c0.1-0.1,0.3-0.3,0.5-0.7c1.2-2,3.1-7.5,3.6-10.5
	C78.4,19.8,79.5,19.2,80.8,19.5"/>
</svg>
