<?xml version="1.0" encoding="utf-8"?>
<!-- Generator: Adobe Illustrator 24.3.0, SVG Export Plug-In . SVG Version: 6.00 Build 0)  -->
<svg version="1.1"
	 id="svg2985" xmlns:cc="http://creativecommons.org/ns#" xmlns:dc="http://purl.org/dc/elements/1.1/" xmlns:inkscape="http://www.inkscape.org/namespaces/inkscape" xmlns:rdf="http://www.w3.org/1999/02/22-rdf-syntax-ns#" xmlns:sodipodi="http://sodipodi.sourceforge.net/DTD/sodipodi-0.dtd" xmlns:svg="http://www.w3.org/2000/svg"
	 xmlns="http://www.w3.org/2000/svg" xmlns:xlink="http://www.w3.org/1999/xlink" x="0px" y="0px" viewBox="0 0 219.69 155.07"
	 style="enable-background:new 0 0 219.69 155.07;" xml:space="preserve">
<style type="text/css">
	.st0{fill-rule:evenodd;clip-rule:evenodd;fill:#FFFFFF;}
	.st1{fill-rule:evenodd;clip-rule:evenodd;fill:#2E3192;}
	.st2{fill-rule:evenodd;clip-rule:evenodd;fill:#ED1C24;}
</style>
<sodipodi:namedview  bordercolor="#666666" borderopacity="1" fit-margin-bottom="0" fit-margin-left="0" fit-margin-right="0" fit-margin-top="0" gridtolerance="10" guidetolerance="10" id="namedview2987" inkscape:current-layer="g2993" inkscape:cx="361.24492" inkscape:cy="137.99543" inkscape:pageopacity="0" inkscape:pageshadow="2" inkscape:window-height="744" inkscape:window-maximized="1" inkscape:window-width="1280" inkscape:window-x="-4" inkscape:window-y="-4" inkscape:zoom="1" objecttolerance="10" pagecolor="#ffffff" showgrid="false">
	</sodipodi:namedview>
<g id="g2993" transform="matrix(1.25,0,0,-1.25,-10.63008,198.0063)" inkscape:groupmode="layer" inkscape:label="Pepsi">
	<g id="g3037">
		<path id="path2999" inkscape:connector-curvature="0" class="st0" d="M8.5,34.35h175.75v124.05H8.5
			C8.5,158.41,8.5,34.35,8.5,34.35z"/>
		<path id="path3001" inkscape:connector-curvature="0" class="st1" d="M140.91,63.37L139.83,62l-1.08-1.37l-1.15-1.3l-1.22-1.3
			l-1.22-1.22l-1.3-1.22l-1.3-1.15l-1.3-1.15l-1.44-1.08l-1.37-1.01l-1.44-1.01l-1.51-0.94l-1.51-0.94l-1.51-0.86l-1.58-0.79
			l-1.58-0.79l-1.66-0.72L116,44.5l-1.66-0.58l-1.73-0.58l-1.73-0.5l-1.73-0.43l-1.73-0.36l-1.8-0.36l-1.8-0.29l-1.87-0.22
			l-1.8-0.14l-1.87-0.07l-1.87-0.07l-2.09,0.07l-2.09,0.07l-2.02,0.22l-2.02,0.29l-2.02,0.36l-2.02,0.36l-1.94,0.5l-1.87,0.58
			l-1.94,0.58l-1.87,0.72l-1.8,0.72l-1.8,0.79l-1.8,0.86l-1.73,0.94l-1.66,1.01l-1.66,1.01l-1.66,1.15l-1.58,1.15l-1.51,1.22
			l-1.51,1.22l-1.44,1.3l-1.37,1.37l-1.37,1.44l-1.3,1.44l-1.22,1.51l-1.22,1.51l-1.15,1.66l-1.08,1.58l-1.01,1.66l-0.94,1.73
			l-0.94,1.73l-2.74,5.83l4.46-2.52l0.58-0.36l0.65-0.29l0.58-0.29l0.72-0.36l0.65-0.29l0.72-0.29l0.72-0.29l0.79-0.29l0.72-0.29
			l0.79-0.29l0.79-0.29l0.79-0.22l0.86-0.29l0.79-0.22l0.86-0.22l0.79-0.22l0.86-0.22l0.86-0.22l0.86-0.22l0.86-0.14l0.79-0.22
			l0.86-0.14l0.86-0.14l0.86-0.07l0.79-0.14l0.86-0.07l0.79-0.07l0.79-0.07l0.79-0.07h4.18l0.94,0.07h0.86l0.86,0.07h0.86l0.86,0.07
			l0.86,0.07l0.86,0.07l0.79,0.07l0.86,0.07l0.86,0.07l0.79,0.07l0.86,0.14l0.86,0.07l0.79,0.07l0.86,0.14L89,69.85l0.86,0.14
			l0.79,0.14l0.86,0.14l0.86,0.07l0.79,0.14l0.86,0.14l0.79,0.14l0.86,0.14l0.86,0.14l0.79,0.14l0.86,0.14l0.86,0.14l0.86,0.14
			l0.65,0.14l0.65,0.14l0.58,0.07l0.65,0.14l0.65,0.14l0.58,0.07l0.65,0.14l0.58,0.14l0.65,0.14l0.58,0.14l0.65,0.14l0.65,0.14
			l0.58,0.14l0.65,0.14l0.65,0.07l0.65,0.14l0.58,0.14l0.65,0.14l0.65,0.07l0.72,0.14l0.65,0.14l0.65,0.07l0.72,0.07l0.65,0.14
			l0.72,0.07l0.72,0.07l0.72,0.07h0.72l0.79,0.07h0.72l0.79,0.07h1.58l0.79-0.07h0.79l0.79-0.07h0.72l0.79-0.07l0.79-0.07l0.72-0.07
			l0.72-0.14l0.79-0.07l0.72-0.14l0.72-0.14l0.72-0.14l0.72-0.14l0.72-0.14l0.72-0.14l0.65-0.22l0.72-0.14l0.65-0.22l0.72-0.22
			l0.65-0.22l0.65-0.22l0.65-0.22l0.65-0.22l0.65-0.29l0.58-0.22l0.65-0.29l0.58-0.29l0.65-0.29l0.58-0.22l0.58-0.36l1.87-0.94
			l-1.73-2.81l-1.01-1.44L140.91,63.37"/>
		<path id="path3003" inkscape:connector-curvature="0" class="st2" d="M98.5,151.78l2.09-0.07l2.02-0.22l2.02-0.29l2.02-0.29
			l2.02-0.43l1.94-0.5l1.87-0.5l1.94-0.65l1.87-0.65l1.8-0.79l1.8-0.79l1.73-0.86l1.8-0.94l1.66-1.01l1.65-1.01l1.58-1.08l1.58-1.15
			l1.58-1.22l1.44-1.3l1.44-1.3l1.44-1.37l1.3-1.37l1.3-1.51l1.3-1.51l1.15-1.51l1.15-1.58l1.08-1.66l1.01-1.65l1.01-1.73l0.86-1.73
			l2.81-5.76l-4.46,2.45l-0.65,0.36l-0.58,0.29l-0.65,0.29l-0.65,0.36l-0.72,0.29l-0.72,0.29l-0.72,0.29l-0.72,0.29l-0.79,0.29
			l-0.79,0.29l-0.79,0.29l-0.79,0.22l-0.79,0.29l-0.86,0.22l-0.79,0.21l-0.86,0.29l-0.86,0.14l-0.79,0.22l-0.86,0.22l-0.86,0.14
			l-0.86,0.22l-0.79,0.14l-0.86,0.14l-0.86,0.07l-0.79,0.14l-0.86,0.07l-0.79,0.07l-0.79,0.07l-0.79,0.07h-4.18l-0.94-0.07h-0.86
			l-0.86-0.07h-0.86l-0.86-0.07l-0.86-0.07l-0.86-0.07l-0.86-0.07l-0.86-0.07l-0.79-0.07l-0.86-0.07l-0.86-0.14l-0.79-0.07
			l-0.86-0.07l-0.79-0.15l-0.86-0.07l-0.79-0.15l-0.86-0.14l-0.86-0.14l-0.79-0.07l-0.86-0.14l-0.79-0.14l-0.86-0.14l-0.79-0.14
			l-0.86-0.15l-0.86-0.14l-0.86-0.14l-0.79-0.14l-0.86-0.14l-0.65-0.14l-0.65-0.07l-0.65-0.14l-0.65-0.14l-0.58-0.15l-0.65-0.07
			l-0.58-0.14l-0.65-0.15l-0.58-0.14l-0.65-0.14l-0.65-0.14l-0.58-0.14l-0.65-0.14l-0.65-0.14l-0.58-0.07l-0.65-0.14l-0.65-0.14
			l-0.65-0.14l-0.65-0.07l-0.65-0.14l-0.65-0.14l-0.72-0.07l-0.65-0.07l-0.72-0.14l-0.72-0.07l-0.72-0.07l-0.72-0.07h-0.72
			l-0.72-0.07h-0.79l-0.79-0.07h-1.58l-0.79,0.07h-0.72l-0.79,0.07h-0.79l-0.79,0.07l-0.72,0.07l-0.79,0.14l-0.72,0.07l-0.72,0.14
			l-0.72,0.07l-0.72,0.14l-0.72,0.14l-0.72,0.14l-0.72,0.14l-0.72,0.22l-0.72,0.14l-0.65,0.22l-0.72,0.14l-0.65,0.22l-0.65,0.22
			l-0.65,0.22l-0.65,0.29l-0.65,0.22l-0.65,0.22l-0.58,0.29l-0.65,0.22l-0.58,0.29l-0.65,0.29l-0.58,0.29l-0.58,0.29l-1.94,0.94
			l1.73,2.81l1.01,1.44l1.01,1.44l1.08,1.37l1.15,1.37l1.15,1.3l1.15,1.3l1.22,1.22l1.3,1.22l1.3,1.15l1.37,1.15l1.37,1.08
			l1.44,1.01l1.44,1.01l1.44,0.94l1.51,0.94l1.58,0.86l1.58,0.79l1.58,0.79l1.58,0.72l1.66,0.65l1.73,0.58l1.66,0.58l1.73,0.5
			l1.8,0.43l1.73,0.36l1.8,0.36l1.8,0.29l1.87,0.22l1.8,0.14l1.87,0.07l1.87,0.07L98.5,151.78"/>
		<path id="path3009" inkscape:connector-curvature="0" class="st1" d="M141.63,83.07h7.49v26.28h-7.49V83.07z M138.46,101.65
			c-0.43,6.19-5.9,8.5-11.3,8.5c-9.94,0-12.67-4.54-12.67-8.5c0-11.52,17.28-5.98,17.28-11.88c0-2.02-1.51-3.1-4.89-3.1
			c-2.45,0-5.47,0.29-5.47,4.32h-7.49c0.22-7.49,6.91-8.71,12.67-8.71c7.99,0,12.67,3.24,12.67,9.22c0,10.15-17.21,6.19-17.21,11.09
			c0,2.52,2.23,3.17,4.39,3.17c2.74,0,4.25-1.3,4.46-4.1C130.9,101.65,138.46,101.65,138.46,101.65z M97.35,103.95h4.46
			c2.81,0,4.1-1.3,4.1-3.46c0-2.3-1.3-3.6-4.1-3.6h-4.46V103.95z M89.86,83.07h7.49v8.5h4.82c8.35,0,11.45,3.38,11.45,8.93
			c0,5.4-3.1,8.86-11.45,8.86H89.86L89.86,83.07L89.86,83.07z M49.9,103.95h4.54c2.74,0,4.03-1.3,4.03-3.46c0-2.3-1.3-3.6-4.03-3.6
			H49.9C49.9,96.89,49.9,103.95,49.9,103.95z M42.42,83.07h7.49v8.5h4.82c8.42,0,11.52,3.38,11.52,8.93c0,5.4-3.1,8.86-11.52,8.86
			H42.42C42.42,109.35,42.42,83.07,42.42,83.07z M87.63,88.4H75.32v5.62h12.31v5.4H75.32v4.54h12.31v5.4h-19.8V83.07h19.8V88.4"/>
	</g>
</g>
</svg>
