<?xml version="1.0" encoding="utf-8"?>
<!-- Generator: Adobe Illustrator 24.3.0, SVG Export Plug-In . SVG Version: 6.00 Build 0)  -->
<svg version="1.1"
	 id="svg7599" xmlns:cc="http://creativecommons.org/ns#" xmlns:dc="http://purl.org/dc/elements/1.1/" xmlns:inkscape="http://www.inkscape.org/namespaces/inkscape" xmlns:rdf="http://www.w3.org/1999/02/22-rdf-syntax-ns#" xmlns:sodipodi="http://sodipodi.sourceforge.net/DTD/sodipodi-0.dtd" xmlns:svg="http://www.w3.org/2000/svg"
	 xmlns="http://www.w3.org/2000/svg" xmlns:xlink="http://www.w3.org/1999/xlink" x="0px" y="0px" viewBox="0 0 150 150"
	 style="enable-background:new 0 0 150 150;" xml:space="preserve">
<style type="text/css">
	.st0{fill:#FFFFFF;}
	.st1{fill:#244BA6;}
</style>
<sodipodi:namedview  bordercolor="#666666" borderopacity="1.0" fit-margin-bottom="0" fit-margin-left="0" fit-margin-right="0" fit-margin-top="0" id="base" inkscape:current-layer="layer1" inkscape:cx="143.61589" inkscape:cy="103.6399" inkscape:document-units="mm" inkscape:pageopacity="0.0" inkscape:pageshadow="2" inkscape:window-height="1001" inkscape:window-maximized="1" inkscape:window-width="1920" inkscape:window-x="-9" inkscape:window-y="-9" inkscape:zoom="4" pagecolor="#ffffff" showgrid="false">
	</sodipodi:namedview>
<g id="layer1" transform="translate(-85.455613,-123.09089)" inkscape:groupmode="layer" inkscape:label="Layer 1">
	<g id="g8173">
		<path id="path8168" class="st0" d="M218.5,198.1c0,32-26,58-58,58l0,0c-32,0-58-26-58-58l0,0c0-32,26-58,58-58
			S218.5,166.1,218.5,198.1z"/>
		<path id="path5449" inkscape:connector-curvature="0" class="st1" d="M218.5,198.1c0-32-26-58-58-58s-58,26-58,58
			c0,30.5,23.6,55.6,53.6,57.8c-2.6-3.1-5.7-7.3-8.5-11.3C142.9,238,137.2,228,137,218c-0.2-7.4,1.5-11.4,11.3-26.8
			c3.8-6,6.3-16.3,6-18.5c-0.4-2.2,3.6,3.3,5,7c1.9,4.9,1.7,8.7-1.9,18.9c-1.7,4.9-4.6,12.7-1.7,16.2c-0.3-0.4,9.2-10.2,11.4-20.2
			c1.7-7.7,1-18-2.3-25.6c-2.9-6.6-6.4-12.1-5.7-20.9c0.3-3.7,1.3-7.3,1.4-7.5c2.2,5.4,3.1,7.3,3.9,8.9c3.9,7.4,12.1,18.3,15.8,25.8
			c3.9,7.4,6.8,19.7,2.3,32.2c-4.4,12.3-8.6,16.5-13.1,26.4c-3.3,7.4-6.1,16.5-7.5,22.3C193.3,255.2,218.5,229.6,218.5,198.1"/>
	</g>
</g>
</svg>
